<svg width="33" height="41" viewBox="0 0 33 41" fill="none" xmlns="http://www.w3.org/2000/svg">
<path d="M22.301 7.17058H3.24104C1.45259 7.17058 0 8.62317 0 10.4116V37.7589C0 39.5474 1.45259 41 3.24104 41H22.301C24.0895 41 25.5421 39.5474 25.5421 37.7589V10.4116C25.5337 8.62317 24.0811 7.17058 22.301 7.17058ZM23.2666 37.7506C23.2666 38.2879 22.83 38.7245 22.2926 38.7245H3.23264C2.69527 38.7245 2.25865 38.2879 2.25865 37.7506V10.4116C2.25865 9.87424 2.69527 9.43763 3.23264 9.43763H22.2926C22.83 9.43763 23.2666 9.87424 23.2666 10.4116V37.7506Z" fill="black"/>
<path d="M29.5892 0H10.5292C8.74074 0 7.28815 1.45259 7.28815 3.24104C7.28815 3.87078 7.79194 4.37456 8.42167 4.37456C9.05141 4.37456 9.5552 3.87078 9.5552 3.24104C9.5552 2.70367 9.99181 2.26705 10.5292 2.26705H29.5892C30.1266 2.26705 30.5632 2.70367 30.5632 3.24104V30.5884C30.5632 31.1257 30.1266 31.5624 29.5892 31.5624C28.9595 31.5624 28.4557 32.0661 28.4557 32.6959C28.4557 33.3256 28.9595 33.8294 29.5892 33.8294C31.3776 33.8294 32.8302 32.3768 32.8302 30.5884V3.24104C32.8302 1.45259 31.3776 0 29.5892 0Z" fill="black"/>
</svg>
